<svg width="432" height="432" viewBox="0 0 432 432" fill="none" xmlns="http://www.w3.org/2000/svg">
<g transform="translate(216 216) scale(1.928) translate(-64 -64)">
  <g><defs><linearGradient id="l0-wood" x1="-30" x2="30" gradientUnits="userSpaceOnUse"><stop stop-color="#9A5A30"/><stop offset=".28" stop-color="#E7A96E"/><stop offset=".45" stop-color="#F6C996"/><stop offset="1" stop-color="#8E512A"/></linearGradient><radialGradient id="l0-face" cx="-6" cy="-35" r="34" gradientTransform="matrix(1 0 0 .3 0 -24.5)" gradientUnits="userSpaceOnUse"><stop stop-color="#FAD6A8"/><stop offset="1" stop-color="#DDA06A"/></radialGradient></defs>
  <g transform="translate(4.1 2.9) translate(60 56) rotate(-28)"><path d="M-30 26V34A30 9 0 0 0 30 34V26Z" fill="url(#l0-wood)"/><ellipse cx="0" cy="26" rx="30" ry="9" fill="#E3A66E"/></g></g>
  <g><defs><linearGradient id="l1-thread" x1="-21" x2="21" gradientUnits="userSpaceOnUse"><stop stop-color="#135A63"/><stop offset=".3" stop-color="#4EDCE2"/><stop offset=".42" stop-color="#B8F5F0"/><stop offset=".56" stop-color="#4EDCE2"/><stop offset="1" stop-color="#135A63"/></linearGradient><clipPath id="l1-body"><path d="M-21 -32V26A21 6.4799999999999995 0 0 0 21 26V-32Z"/></clipPath></defs>
  <g transform="translate(4.1 2.9) translate(60 56) rotate(-28)"><path d="M-21 -32V26A21 6.4799999999999995 0 0 0 21 26V-32Z" fill="url(#l1-thread)"/><g clip-path="url(#l1-body)"><path d="M-21 -14A21 6.4799999999999995 0 0 0 21 -12.5" stroke="#135A63" stroke-opacity="0.13" stroke-width="5"/><path d="M-21 16A21 6.4799999999999995 0 0 0 21 17.8" stroke="#135A63" stroke-opacity="0.1" stroke-width="4"/><path d="M-21 -26A21 6.4799999999999995 0 0 0 21 -23.71" stroke="#135A63" stroke-opacity="0.27" stroke-width="1.15"/><path d="M-21 -24.21A21 6.4799999999999995 0 0 0 21 -22.64" stroke="#B8F5F0" stroke-opacity="0.11" stroke-width="0.59"/><path d="M-21 -20.64A21 6.4799999999999995 0 0 0 21 -18.85" stroke="#B8F5F0" stroke-opacity="0.2" stroke-width="0.91"/><path d="M-21 -17.79A21 6.4799999999999995 0 0 0 21 -15.67" stroke="#B8F5F0" stroke-opacity="0.19" stroke-width="0.86"/><path d="M-21 -14.47A21 6.4799999999999995 0 0 0 21 -12.74" stroke="#135A63" stroke-opacity="0.14" stroke-width="1.04"/><path d="M-21 -11.18A21 6.4799999999999995 0 0 0 21 -9.85" stroke="#135A63" stroke-opacity="0.36" stroke-width="0.63"/><path d="M-21 -8.62A21 6.4799999999999995 0 0 0 21 -7.38" stroke="#135A63" stroke-opacity="0.15" stroke-width="0.95"/><path d="M-21 -5.45A21 6.4799999999999995 0 0 0 21 -3.56" stroke="#135A63" stroke-opacity="0.34" stroke-width="0.72"/><path d="M-21 -2.63A21 6.4799999999999995 0 0 0 21 -1.12" stroke="#135A63" stroke-opacity="0.24" stroke-width="1.01"/><path d="M-21 -0.34A21 6.4799999999999995 0 0 0 21 1.9" stroke="#135A63" stroke-opacity="0.27" stroke-width="0.8"/><path d="M-21 3.25A21 6.4799999999999995 0 0 0 21 4.58" stroke="#135A63" stroke-opacity="0.18" stroke-width="1.15"/><path d="M-21 6.07A21 6.4799999999999995 0 0 0 21 7.4" stroke="#135A63" stroke-opacity="0.22" stroke-width="0.67"/><path d="M-21 7.77A21 6.4799999999999995 0 0 0 21 9.86" stroke="#B8F5F0" stroke-opacity="0.13" stroke-width="0.9"/><path d="M-21 10.88A21 6.4799999999999995 0 0 0 21 12.47" stroke="#B8F5F0" stroke-opacity="0.19" stroke-width="0.96"/><path d="M-21 14.16A21 6.4799999999999995 0 0 0 21 15.88" stroke="#135A63" stroke-opacity="0.31" stroke-width="1.17"/><path d="M-21 16.47A21 6.4799999999999995 0 0 0 21 17.84" stroke="#B8F5F0" stroke-opacity="0.16" stroke-width="1.17"/><path d="M-21 19.53A21 6.4799999999999995 0 0 0 21 20.7" stroke="#135A63" stroke-opacity="0.19" stroke-width="1.09"/><path d="M-21 22.68A21 6.4799999999999995 0 0 0 21 24.44" stroke="#135A63" stroke-opacity="0.3" stroke-width="0.82"/><path d="M-21 25A21 6.4799999999999995 0 0 0 21 26.37" stroke="#135A63" stroke-opacity="0.33" stroke-width="0.68"/><path d="M-21 27.99A21 6.4799999999999995 0 0 0 21 29.67" stroke="#B8F5F0" stroke-opacity="0.16" stroke-width="0.89"/></g><path d="M19.8 17.59L18.1 18.72L16.4 19.48L14.7 20.06L13 20.52L11.3 20.89L9.6 21.19L7.9 21.43L6.2 21.62L4.5 21.76L2.8 21.85L1.1 21.9L-0.6 21.91L-2.3 21.87L-4 21.79L-5.7 21.67L-7.4 21.49L-9.1 21.27L-10.8 20.99L-12.5 20.64L-14.2 20.2L-15.9 19.66L-17.6 18.96L-19.3 17.98L-21 15.43" stroke="#135A63" stroke-opacity=".2" stroke-width=".7"/><path d="M19.8 16.16L18.1 17.29L16.4 18.05L14.7 18.63L13 19.09L11.3 19.46L9.6 19.76L7.9 20L6.2 20.19L4.5 20.33L2.8 20.42L1.1 20.47L-0.6 20.48L-2.3 20.44L-4 20.36L-5.7 20.24L-7.4 20.06L-9.1 19.84L-10.8 19.56L-12.5 19.21L-14.2 18.77L-15.9 18.23L-17.6 17.53L-19.3 16.55L-21 14" stroke="url(#l1-thread)" stroke-width="2.6"/></g></g>
  <g><g transform="translate(4.1 2.9)"><path d="M48.03 78.22C45 84 38 90 33 100C30 107 35 111 40 108C45 105 41 99 36 102C31 105 27 109 21 109" stroke="#2A9CA8" stroke-width="2.6" stroke-linecap="round"/><path d="M48.03 78.22C45 84 38 90 33 100C30 107 35 111 40 108C45 105 41 99 36 102C31 105 27 109 21 109" stroke="#4EDCE2" stroke-width="1.56" stroke-linecap="round"/><path d="M48.03 78.22C45 84 38 90 33 100C30 107 35 111 40 108C45 105 41 99 36 102C31 105 27 109 21 109" stroke="#B8F5F0" stroke-opacity=".35" stroke-width="0.57" stroke-dasharray="0.7 1.3" stroke-linecap="round"/><path d="M21 108.5L17.8 107.5" stroke="#4EDCE2" stroke-width="0.83" stroke-linecap="round"/><path d="M21 109L17.8 109" stroke="#4EDCE2" stroke-width="0.83" stroke-linecap="round"/><path d="M21 109.5L17.8 110.5" stroke="#4EDCE2" stroke-width="0.83" stroke-linecap="round"/></g></g>
  <g><defs><linearGradient id="l3-wood" x1="-30" x2="30" gradientUnits="userSpaceOnUse"><stop stop-color="#9A5A30"/><stop offset=".28" stop-color="#E7A96E"/><stop offset=".45" stop-color="#F6C996"/><stop offset="1" stop-color="#8E512A"/></linearGradient><radialGradient id="l3-face" cx="-6" cy="-35" r="34" gradientTransform="matrix(1 0 0 .3 0 -24.5)" gradientUnits="userSpaceOnUse"><stop stop-color="#FAD6A8"/><stop offset="1" stop-color="#DDA06A"/></radialGradient></defs>
  <g transform="translate(4.1 2.9) translate(60 56) rotate(-28)"><path d="M-30 -32V-24A30 9 0 0 0 30 -24V-32Z" fill="url(#l3-wood)"/><ellipse cx="0" cy="-32" rx="30" ry="9" fill="url(#l3-face)"/><ellipse cx="0" cy="-32" rx="25" ry="7.4" stroke="#C98A55" stroke-opacity=".45" stroke-width=".8"/><ellipse cx="0" cy="-32" rx="15" ry="4.4" stroke="#C98A55" stroke-opacity=".35" stroke-width=".7"/><ellipse cx="0" cy="-32" rx="6.5" ry="2.1" fill="#4A2A18"/><path d="M-6.5 -32A6.5 2.1 0 0 1 6.5 -32" stroke="#2E190D" stroke-width="1.2"/></g></g>
</g>
</svg>
