<svg xmlns="http://www.w3.org/2000/svg" width="128" height="128" viewBox="0 0 128 128" fill="none">
  <!-- A cutting mat: fine 8-unit grid, heavier every 32, and 45° guides. -->
  <path d="M-8 -8V136" stroke="#9BE3D2" stroke-opacity="0.16" stroke-width="0.4"/><path d="M0 -8V136" stroke="#9BE3D2" stroke-opacity="0.4" stroke-width="0.7"/><path d="M8 -8V136" stroke="#9BE3D2" stroke-opacity="0.16" stroke-width="0.4"/><path d="M16 -8V136" stroke="#9BE3D2" stroke-opacity="0.16" stroke-width="0.4"/><path d="M24 -8V136" stroke="#9BE3D2" stroke-opacity="0.16" stroke-width="0.4"/><path d="M32 -8V136" stroke="#9BE3D2" stroke-opacity="0.4" stroke-width="0.7"/><path d="M40 -8V136" stroke="#9BE3D2" stroke-opacity="0.16" stroke-width="0.4"/><path d="M48 -8V136" stroke="#9BE3D2" stroke-opacity="0.16" stroke-width="0.4"/><path d="M56 -8V136" stroke="#9BE3D2" stroke-opacity="0.16" stroke-width="0.4"/><path d="M64 -8V136" stroke="#9BE3D2" stroke-opacity="0.4" stroke-width="0.7"/><path d="M72 -8V136" stroke="#9BE3D2" stroke-opacity="0.16" stroke-width="0.4"/><path d="M80 -8V136" stroke="#9BE3D2" stroke-opacity="0.16" stroke-width="0.4"/><path d="M88 -8V136" stroke="#9BE3D2" stroke-opacity="0.16" stroke-width="0.4"/><path d="M96 -8V136" stroke="#9BE3D2" stroke-opacity="0.4" stroke-width="0.7"/><path d="M104 -8V136" stroke="#9BE3D2" stroke-opacity="0.16" stroke-width="0.4"/><path d="M112 -8V136" stroke="#9BE3D2" stroke-opacity="0.16" stroke-width="0.4"/><path d="M120 -8V136" stroke="#9BE3D2" stroke-opacity="0.16" stroke-width="0.4"/><path d="M128 -8V136" stroke="#9BE3D2" stroke-opacity="0.4" stroke-width="0.7"/><path d="M136 -8V136" stroke="#9BE3D2" stroke-opacity="0.16" stroke-width="0.4"/><path d="M-8 -8H136" stroke="#9BE3D2" stroke-opacity="0.16" stroke-width="0.4"/><path d="M-8 0H136" stroke="#9BE3D2" stroke-opacity="0.4" stroke-width="0.7"/><path d="M-8 8H136" stroke="#9BE3D2" stroke-opacity="0.16" stroke-width="0.4"/><path d="M-8 16H136" stroke="#9BE3D2" stroke-opacity="0.16" stroke-width="0.4"/><path d="M-8 24H136" stroke="#9BE3D2" stroke-opacity="0.16" stroke-width="0.4"/><path d="M-8 32H136" stroke="#9BE3D2" stroke-opacity="0.4" stroke-width="0.7"/><path d="M-8 40H136" stroke="#9BE3D2" stroke-opacity="0.16" stroke-width="0.4"/><path d="M-8 48H136" stroke="#9BE3D2" stroke-opacity="0.16" stroke-width="0.4"/><path d="M-8 56H136" stroke="#9BE3D2" stroke-opacity="0.16" stroke-width="0.4"/><path d="M-8 64H136" stroke="#9BE3D2" stroke-opacity="0.4" stroke-width="0.7"/><path d="M-8 72H136" stroke="#9BE3D2" stroke-opacity="0.16" stroke-width="0.4"/><path d="M-8 80H136" stroke="#9BE3D2" stroke-opacity="0.16" stroke-width="0.4"/><path d="M-8 88H136" stroke="#9BE3D2" stroke-opacity="0.16" stroke-width="0.4"/><path d="M-8 96H136" stroke="#9BE3D2" stroke-opacity="0.4" stroke-width="0.7"/><path d="M-8 104H136" stroke="#9BE3D2" stroke-opacity="0.16" stroke-width="0.4"/><path d="M-8 112H136" stroke="#9BE3D2" stroke-opacity="0.16" stroke-width="0.4"/><path d="M-8 120H136" stroke="#9BE3D2" stroke-opacity="0.16" stroke-width="0.4"/><path d="M-8 128H136" stroke="#9BE3D2" stroke-opacity="0.4" stroke-width="0.7"/><path d="M-8 136H136" stroke="#9BE3D2" stroke-opacity="0.16" stroke-width="0.4"/><path d="M-8 136L136 -8M-8 72L72 -8M56 136L136 56" stroke="#9BE3D2" stroke-opacity=".14" stroke-width=".5"/>
</svg>
